/* XPM */
static char *f4135e6e8e8b4dc6f1fad5512364da30KMSsWRKV1aU2sFvB[] = {
/* columns rows colors chars-per-pixel */
"64 64 255 2 ",
"   c #040B04",
".  c #000D0B",
"X  c #071407",
"o  c #01140C",
"O  c #011A0C",
"+  c #0C1A0C",
"@  c #181606",
"#  c #141C0D",
"$  c #1B1C0C",
"%  c #011512",
"&  c #011A15",
"*  c #0B1C13",
"=  c #00121D",
"-  c #011D1A",
";  c #191C13",
":  c #241D0C",
">  c #281D0C",
",  c #261D15",
"<  c #321E10",
"1  c #05240E",
"2  c #1B270B",
"3  c #1C230C",
"4  c #03300B",
"5  c #022314",
"6  c #0D2213",
"7  c #072917",
"8  c #01241B",
"9  c #012B1B",
"0  c #0B2C1C",
"q  c #142413",
"w  c #1B2411",
"e  c #172B18",
"r  c #02341C",
"t  c #0A341E",
"y  c #023C1D",
"u  c #0C3819",
"i  c #173619",
"p  c #13331D",
"a  c #25240D",
"s  c #2B250C",
"d  c #28290A",
"f  c #35280D",
"g  c #3A2C0E",
"h  c #2B320E",
"j  c #3C320E",
"k  c #3A390B",
"l  c #272615",
"z  c #232A15",
"x  c #242E1A",
"c  c #342A12",
"v  c #25321C",
"b  c #28361A",
"n  c #363617",
"m  c #001E21",
"M  c #0A1B22",
"N  c #012523",
"B  c #022C22",
"V  c #082B26",
"C  c #162A22",
"Z  c #023323",
"A  c #0C3523",
"S  c #023B24",
"D  c #0B3B23",
"F  c #03352A",
"G  c #0C352B",
"H  c #033B2B",
"J  c #0B3C2A",
"K  c #133324",
"L  c #173926",
"P  c #0C2A32",
"I  c #083834",
"U  c #0C3B34",
"Y  c #133C34",
"T  c #163E3A",
"R  c #183839",
"E  c #342D26",
"W  c #273B27",
"Q  c #2E302A",
"!  c #393828",
"~  c #273839",
"^  c #43340E",
"/  c #433B0D",
"(  c #4A3A0E",
")  c #543A0E",
"_  c #432A12",
"`  c #443312",
"'  c #483A16",
"]  c #533B18",
"[  c #473A26",
"{  c #4B342F",
"}  c #683724",
"|  c #03441E",
" . c #07471C",
".. c #16491B",
"X. c #0A541D",
"o. c #25461C",
"O. c #384C1B",
"+. c #034424",
"@. c #0B4225",
"#. c #044B21",
"$. c #02422B",
"%. c #0D442C",
"&. c #064B28",
"*. c #0C4B2C",
"=. c #12442B",
"-. c #184829",
";. c #045322",
":. c #095926",
">. c #01532D",
",. c #0B532D",
"<. c #15562B",
"1. c #084835",
"2. c #174737",
"3. c #1A433C",
"4. c #0B5534",
"5. c #095938",
"6. c #175438",
"7. c #274629",
"8. c #374626",
"9. c #27572C",
"0. c #274837",
"q. c #344C32",
"w. c #235636",
"e. c #385636",
"r. c #0F6929",
"t. c #0C6336",
"y. c #0B673A",
"u. c #126836",
"i. c #0A763B",
"p. c #157537",
"a. c #2F682A",
"s. c #44420C",
"d. c #4C440D",
"f. c #55480C",
"g. c #5A520D",
"h. c #4B4616",
"j. c #574917",
"k. c #4B5418",
"l. c #595419",
"z. c #654A0F",
"x. c #68570C",
"c. c #76550F",
"v. c #654A12",
"b. c #665414",
"n. c #785B11",
"m. c #526619",
"M. c #76660D",
"N. c #686311",
"B. c #786712",
"V. c #4A4727",
"C. c #554825",
"Z. c #4A5527",
"A. c #4A4838",
"S. c #535130",
"D. c #595639",
"F. c #685926",
"G. c #6F522B",
"H. c #4E6533",
"J. c #7A6626",
"K. c #6D6A33",
"L. c #1D3E43",
"P. c #1C4443",
"I. c #194A46",
"U. c #0A554A",
"Y. c #0B544D",
"T. c #185546",
"R. c #1A5B54",
"E. c #234445",
"W. c #224B45",
"Q. c #294846",
"!. c #224549",
"~. c #244B4B",
"^. c #2B4C4C",
"/. c #314E4F",
"(. c #2D534D",
"). c #265948",
"_. c #345547",
"`. c #284E51",
"'. c #2C5453",
"]. c #285655",
"[. c #2C5C53",
"{. c #2D5959",
"}. c #335956",
"|. c #325B5C",
" X c #0A6945",
".X c #1A6644",
"XX c #0C7340",
"oX c #0B7846",
"OX c #196857",
"+X c #167055",
"@X c #27644A",
"#X c #2C6353",
"$X c #286655",
"%X c #2C6B5B",
"&X c #34665A",
"*X c #307355",
"=X c #385E62",
"-X c #0F7168",
";X c #2A6761",
":X c #346262",
">X c #386865",
",X c #3D6B6A",
"<X c #2B7866",
"1X c #347264",
"2X c #377868",
"3X c #3B7B6C",
"4X c #287770",
"5X c #3A7A73",
"6X c #52584A",
"7X c #635C43",
"8X c #4D704E",
"9X c #726E48",
"0X c #416A69",
"qX c #41776C",
"wX c #446F72",
"eX c #467775",
"rX c #91551B",
"tX c #8E760E",
"yX c #856612",
"uX c #857514",
"iX c #8A7636",
"pX c #83794C",
"aX c #0D8C3A",
"sX c #0D8749",
"dX c #0D914C",
"fX c #25856E",
"gX c #38846A",
"hX c #3B8275",
"jX c #328E76",
"kX c #398479",
"lX c #5E925F",
"zX c #618757",
"xX c #4A8470",
"cX c #458878",
"vX c #44957C",
"bX c #9C8210",
"nX c #BA970F",
"mX c #98863F",
"MX c #1F8F84",
"NX c #3B8A81",
"BX c #329387",
"VX c #3CA58F",
"CX c #468B84",
"ZX c #479686",
"AX c #53958A",
"SX c #4B9D94",
"DX c #569C94",
"FX c #49A38B",
"GX c #49A896",
"HX c #55A599",
"JX c #4EB09D",
"KX c #4DB5A5",
"LX c #51B4A6",
"PX c #55C2B3",
"IX c #62D3C5",
/* pixels */
"D D D D D D D D t % * t t A t t t t t t t t t t t t t t t t t t 8 7 7 & 8 7 7 0 t A t t A A A t t t t t t t 8 8 8 * 5 7 t t A t ",
",.4.4.4.,.,.,.@.9 = & D @.@.@.@.@.@.@.@.@.@.@.@.@.@.@.@.@.@.D t 8 8 - - 8 8 - 8 @.D @.@.@.@.@.@.@.@.@.@.@.D 8 - 8 - - t @.@.@.D ",
"J 5.oXXXXXy.Z B 8 = 8 @.*.@.*.,.,.,.,.,.,.,.,.,.,.,.,.,.,.4.,.B = = = = = = = Z B *.*.,.,.,.,.,.,.,.,.,.,.H N = = = = B B J Z B ",
"$.4.*.oXsXi.H B Z m Z $.%.$.4.5.t.t.t.t.t.t.t.t.t.t.t.y.4.$.$.F = = = m = = = B H $.$.$.y.y.y.t.t.y.t.*.J H N = * * m = $.H B m ",
"N 4.1.5.5.1.H m m B 1.F 1.1.*.i.XXi.XXXXXXXXXXXXXXXXoXi.y.$.1.N m m m m m N P N m B 9.-.1.4.5.oX5.y.4.1.J Z m m # N N N N m m m ",
"N N F  X4.4.p N N 5 9 5 5 e y. XdXsXsXsXsXsXsXsXdXsXsXsXoX$.N N N N N N N N   N N V ) V.6.5.4.5. XU.1.H B N B 0 $ O 9 B N N N N ",
"B H H $.* p $ B H o o o + ; *. XsXdXsXsXsXsXsXdX XoXoXoXoX$.B B B B B I F q o + o o ` ] ] p D 5.y.F F B Z 9 5 w a O & S $.F H B ",
"$.>.&.$.9 $ > 0 5 o o o $ > + 5.oX XsXdXsXdXsXsX X.X.XoXH $.F Z H F H 6 O w o # o o ^ ] ] # Z Z F F F F - o X ] * 7 & 7 O 9 O S ",
"9 % o O O @ < > o O o o s $ 6 4. XXXsXoXsXoX X X7.` &.5.H 1.$.H r L * + O w o # o w j ` ' q H H H H H $.% o c n % 7 7 0 O o o O ",
"O % O % O   > < # % o + f # t D @. X X X X X-.W g 7.>.r >.9 O & O z 6 O * q O q O w j ` ` q $.H $.$.>.% . z ] 6 8 0 0 A O O O q ",
"O % O % O X : g : * O + _ # D =.D &.5.5. XL l > O.>.& O B 9 8 B 8 e e 8 q 6 & q 8 z b g ` e $.$.>.;.&   $ ] z J V 8 6.%.9 8 O 5 ",
"5 & 5 & O O $ g > + O # _ # =.=.t S $.y.$.a f c 5 . - B B B B B A p z B e B B p B x 7.^ ` q >.>.8 8 o # [ n Z =.& J .X%.B B 9 B ",
"8 & 8 & 5 5 @ g s X   $ g : L -.D >.$.$.H f g q . . 8 F H H J J p K z B v B B p Z x 2.` g w 9 3.3.8 # n [ K =.=.% @X.X%.B B B B ",
"B 8 8 8 5 5 X _ > X   # f s w -.t >.>.$.t f ^ * o . A %.%.2.%.%.L J z L W B B K D v %.' ` a 7 B B 6 z C.n 3.#X=.V <X.XJ B B B B ",
"T B - 8 B 9 X ` a + o + s g a i r 9 $.S 2 g ( % . % ).%X3XCX3X6.L %.z a e B B L -.v J n ' f $ 6 5 $ [ C.e I.2XV T.gX6.J B B B B ",
"P.F & B B B + ^ s e & + a ^ f a T 9 B 6 s ) ( O o - 1X%X1XAXDX1X-.2.v @ e G B W 0.7.2.n ( j.a $ 3 a V.[ 6 ).*X8 gXgXT.F B B B B ",
"P.~.- G B B + g g 3 5 1 3 ^ ` s K B q 3 ) ( / % % B 3X%XhXDXHX5XW.0.W $ L 2.2.W x 0.K i d.j.j.s s n [ n 6 #X).V ZXvX@X2.U B B B ",
"W.|.8 P.Y Y + f ^ s 6 5 3 g ) j w 3 s ) ) ^ / % & 1.3X3XkXHXHX;X>X0.0.$ 7.).w.W x 0.0 5 k ' v.j.s c ! b 7 [.U T.ZXhX2X[.'.U Y B ",
"W.|.B 3.T G + : ( j a q 3 j z.( h / z.z.) g h % B T.2X<XZXSX<X<X5X_.0.z 7.).).W v 0.K B b / j.J.h.j n b I U.8 $XZXgX1X|.R G T Y ",
"W.'.G Y 3.3.5 @ ( ) j s d ^ f.d.z.v.c.) / j q & I 3X5XSXSXkX4X5XkX5Xq.b W ).#XW v 0.R T 0 s.^ l.F.j.c ! 7 H U.-XjX2X>X|.P T 3.T ",
"W.P.T V 3.3.- @ / c.f.^ d./ ( z.n.yXz.f./ z & 8 R.kXkXNXSXkXkXkXNXkX2X8.v [.2XW x R G & O h / ' j.F.' ! * & I 1.Y.-X-X-XY.R.I.I.",
"I.|.T B '.3.& A a f yXn.b.v.z.v.yXn.b.d.b - & B 2XNXZXkXNXNXNXkXNXkXcX8.v [.hXv K 8 8 Y S J / / h.F.J.n q & F <XvX1XT.U Y.Y.OX-X",
"~.|.~.B P.P.- U K a f.yXyXn.n.x.yXn.x.H.I.2.- F FXFXGXGXLXGXGXFXFXZXFX*Xv _.$XF K B ~.'.W.I.-./ / h.J.F.d & I jXZX3XP.P.:XY.T T ",
"I.!.~.N P.P.- T.cXe h K.J.yXn.x.B.yXf.2X$X6.& 1.JXKXJXPXPXKXKXKXKXJXKXvXw.U.Y x 0.T.{.:X|.eX>XS.d.j.b.iXh q I jXkX#X~.~.~.I.T T ",
"R.~.N B V U F <XZXcX0.xX9XB.uXM.B.M.O.OX-XU.- I FXJXGXPXIXIXLXKXJXGXBX-X1.L v x _.R.{.'.{.wX:XeXZ.d.b.J.l.2 V 4XhXqX`.'.:X,XL.L.",
"I.|.R F - - U.2XZXHXxXcX8XF.uXuXB.x.8X$XU.Y.-X-XfXBXVXKXKXLXGXVXMX-XR.OX$X7.x W &XI.:X`.'.,X:XwX0Xd.j.J.iXh B <XcXqX`.P.!.`.!.L.",
"I.'.P.P.B 8 OX2XkXkXNXe.b h.N.uXB.g.eXcXOX%.Y.1.Y.OX-X-XfX-X-XOXR.Y.cXZXZXe.x _.,XU :X`.`.=X:XwX:XS.h.K.mXj.i <XcXeX!.~.R L.L.R ",
"3.`.P.|.2.N <X1XZXkXSX1X$ k g.B.M.g.,XAX$XJ Y.H 4X3XNXBX-XZXSXZXkXfXcXZXFXe.b qX,XU {.~.~.'.>XwX{.8Xk.lX9XiX3 ~ [.~.P.`.!.!.R R ",
"I '.~.{.T.N +X%X4XkXSXZXh k s.M.N.g.:XDX$XZ N F OX3XkXHXGXHXHXkX3XMXcXvXGXH.W ,X,XU I.`.~.`.:X,X:XqXs.Z.l.iXh.@ v ,X`.~.{.,X'.L.",
"I :X:X:X).F OX%X;X;XhX3Xb x./ N.N.f.0XDX6.9 8 F OX1X3XHXHXHXSXkX1X4XcXvXFXe.W 0X&X3.P.'.~.'.].{.qX2X/ s.h.J.iXk @ 0.'.'.5XwX|.P ",
"I 5XZX5X$XF 5.J t t 9 2.b M.f.a.m.f.eXCX6.B N H OXT.1XDXDXSXAXcX%X#X3XcXBX7.W >X_.3.P.'.!.|.'.I.qXhXs.s.h.F.iXs.a z {.,XDXCX>XP ",
"U ;XSX5XT.Z $.5 S F H $.h M.yXO.a.f.eX5XkXU 8 H $X[.&X3XCXCX5X1X[.#X2XZXZX6.W }.q.I.I.{.!.'.{.I qXvXk.s.h.k.K.F.k.s '.,XHXCX>XV ",
"I I.:X{.6.9 5.1.H H $.p k x.nXk.a.g.eX#X2.B 8 t.[.[.qXAXZXcXxX%X#XCXvXFXhX-.W 0._.].;X,X~.T '.I gXjXH./ h.l.K.iXh.h ~.'.,XeX{.M ",
"I U !.!.2.8 OXR.1.R.6.d a.m.nXN.p.k.wX[.8 8 8 5.).[.eXcXqXcX%XT.'.5XvXFX<X-.W W &X;XSXCX'.T P.1.$XgXzXZ.h.l.F.pXk.d ^.!.|.>X`.M ",
"U Y !.!.=.8 OXT.T.%XL i p.x.nXM.a.w.,X].8 8 8 4.T.{.eXcX).#X[.[.!.W.kXSX%X7.v 0.>X;XCXeX'.P.U 6.@X_.n h k l.K.pXC.x `.!.|.>X^.C ",
"T W.^.&XI.V <X$X2X@X2 p.a.x.nXtXk.y.=XI.- - - @..X{.wXcXqX2.W.'.E.^.ZXZX#XL v _.:X].].qX'.!.Y ).gXGX@Xh s.l.K.pXh.W '.Q.'.0X}.R ",
"!.^.^.2XT.Y kXGXhX).d aXm.g.nXbXg.p.*X3.- - - J u.'.0XwXeXW.(.E.E.|.kXZX(.@.x }.>XW.P.0X=X^.3.@XjXJX8Xh.k h.9XpXn 0./.^.}.0X^.'.",
"(.E./.xXT.V R.ZX2Xw...aXN.f.bXbXN.O.u.G & & & F +X%X>X0X0._.(.~ Q.1XZXAXQ.-.x ).>X~.E.&X'./.).*XZXJX8Xj.k h.pX9Xa _././.}.0X~ Q.",
"~.Q./.vXI.- I 3X_.0.p.o.x.g.B.tXuXs.p.i.& & & 2.VXCX>XwX^.0.W.^.^.5XZXxX'.9.v -.|.&XW.W.^./.&XhXFXJXe.k.s.h.pX7X3 &X/.^.|.>X~ ~ ",
"'.'.}.ZX2.& 2.1XQ.0.aXo.g.g.g.tXbXd.O.i.Z % & Y fXhX:XwX}.[.W.'.(.hXZXxXQ.q.b -.{.#X[.^.Q.}.&XvXFXJXw.l./ S.9XD.2 0X^.^.|.&XQ.0.",
"#X'.&XFXU & 6.1X^.@Xp.g.s.g.g.B.tXB.s.<.,.% % - %.$X}.0X|.#X&X'.#XhXvX1X_.b b L ).#X'.=X}.|.2XkXGXcXu.Z.k S.9XV.e >X^.(.}.&X^.0.",
"%X(.2XFXG 8 @X&X^.6.u.n.d.g.g.b.B.tXg.k <.H % % & 2.[.=X=X[.%X'.&X5XgX1Xe.a h L ).#X'.|.'.&XgXvXGX@Xw.l.k D.7Xz W #X(.^.'.%X#X~ ",
"&X(.cXZXN % 6.:X'.2.<.z.c.d.l.H.K.uXM.d.k -.% o % Z ^.'.{.[.%X{.1X3X*X&Xb a l D ).[.'.'.(.2XgXFXZXp.8.j.k D.D.e.*X).(.Q.'.%X[.~ ",
"#X(.vXgX8 % *.[.8X8X9.f.yXd.H.lXlXK.M.x.s.o.w o & 8 P.`.'.(.).#X2X1X@X_.w a a D ).(.'.`.#XgXFXLXgXaXC.h.j A.Z.8X8Xe.q.P.~.#X(.!.",
"6.&XvX[.& o D 7.W z b d.v.v.Z.zXzXK.b.n.g...h . % & Y ^.~.~.T.#X2X&X).L $ a a e =.W.`.^.(.*XvXFXy...G.' j A.2 &XqX0.0.1.I.T.~.`.",
"4.1XgXP.% O J I.5.2 h / f.c.' Z.Z.j.z.j.z.O.:.# o . G I.I.~.6.%X<XcX#Xp @ a : a p W.`.^.(.*X<Xw.:.c G.' c A.z b %.W.I.1.I.I.W.I.",
"5.+X<X8 % o t 1.>.o.j f ( v.z.j / d.f.f.d.H.lXzX9.* F I.I.I.T.1X<XCX>Xe @ a @ $ e E.I.~.{.%X2.&.-.C.K.' s A.x w 5 P.I.$X1.T.I.P.",
"T.+XR.. O O y J >.O.^ s ^ ) v.V.c ( / d.h.n 8.8.8.V.7.2.T.T.$X1X$XT.I.3 @ : @ @ $ W I.I.T.#Xp @.` G.K.' l [ l X o T 1.@X* V G 6.",
"6..XJ . o % } [ u ) ` s g ^ F.O.n S.j ^ ( 2 # h $ o 8 1.Y V ).*XT.2.3.$ : @ @ @ @ e 3.q.D.e t n S.D.9X! a ! l   . F 1.2.Y L C L ",
"e L * o * q e e.g h.` c s f ( j.' b c g ` n h k $ % & 1.L G 6.).-.$.A @ w 3 w ; e e K E { l b S.7XD.7X[ : E w   + Z G K Y L ; C ",
"L C X , } rX] 7.n 8._ b a s n V.V.! f s f j n s.h [ rX} C 6 -.L K K G F D A K J *.0.G.[ ! C.[ A.8.A.[ { $ l C ; } C.[ =.V K G G ",
"=.L 6 C C ~ A.g b 9.b o.$ > f ( A.n a f z f h ' n { Q Q C J L K K J J J J J H 4.7.8.{ { { } D.A.D.! { E $ : Q E q.L E J B J Z B ",
"L =.J J D q 6Xc n <.6.i $ : > g ` V.-.i n i h ` V.6Xb G.V.=.=.J J J J J %.J J *.*.,.C 6XA.E 6X! ! ! E ! l @ , 7X6.D ,.A J J H H ",
"%.%.=.K + @ o.b c #.u.D =.q $ > n n o.:...<.b } _ c { Q , L =.=.-.-.w.w.=.,.=.@.4.-.l l , Q ! ! , < , E ! # # ; @.*.:.%.=.-.J J ",
"&.@.t   ..b o.v p | X.,.*.-.7.w b ..o.X.:.r.i x A.> [ c $ @.,.:.<.p.0.-.%.%.@.q ,.i i # e l l E ; > @ V.e.; e @...4.<.a.4.-.*.*.",
":. .u u .. .p q 4 4 X.:.D -.L 6 $ :.<.:.:.;.-.# # # # $ > u  .:.r.;.*.-.-.i # u  .@.u D 0 + : $ @ @ X K ! l t *.-.9.u w.-.@.@.%.",
";. .i ;.;. . .0 #.u X.;.D D D ;.u :.;.;.;.;.:.p D D A 6 $ u ;.;.;.:.@.@.0.7.* u 4  .@.@.@.D p 0 t t D D + W i <.u u X.D @.D t t ",
" .;. .#.#.#.D #.#.#.;.#.t t ;.#.;.#.#. .#.#.#.:.-.K t D 6 q #.#. .#.:.@.D C 0 @.t u @.@.D -.,.4.:.*.>.%.+.e L 0 7 y  .t #.<.<.6.",
"#.+.| | | #. .| #.|  . .L 0 y | | | | | | | | #.9.-.D t 0 u | | | #.#.D @.*.<.,.,.*.D +.D D #.$.#.&.$.&.&.4.2.J @.| | #.| :.9.6.",
"&.+.y y y y y y y y y y @.#.#.+.+.y y | y y y y =. .| @.D | y y y +.u.p.t.t.oX,.u.5.+.S %.+.y S S S S S S *.4.4.*.| $.S | | #.;.",
"S S S y y r r r r r r r r r y S $.y S S r r r r r r r r r r y r r r &.&.y y ,.y y r Z B &.y r r r Z Z B B Z Z Z S Z Z Z r r y r ",
"B Z Z Z r r r 9 r r 9 9 9 r Z Z Z Z Z Z r r 9 9 9 r 9 r 9 9 r 9 9 9 9 9 9 9 9 9 9 9 8 8 9 9 9 9 9 8 8 8 8 8 8 8 8 9 8 9 9 9 9 9 ",
"8 8 8 8 9 8 9 9 9 9 9 9 9 9 8 8 8 8 8 8 9 9 9 9 9 9 9 9 8 9 9 9 9 9 9 8 8 9 8 8 8 - - - 8 8 - - - - - - - - - - - - 8 8 8 8 8 8 ",
"& & & & - & - & & & 8 8 8 8 & & & & & & & & & - 8 8 8 8 5 5 5 8 8 8 8 - & & & & & & & & & & & & & & & & & & & & & & & & & & & & "
};
