/* XPM */
static char *_33f9b5809164db7de5f07a4831b95888wjUN3xeEdKZMBs4[] = {
/* columns rows colors chars-per-pixel */
"64 64 255 2 ",
"   c #070B04",
".  c #1C0B02",
"X  c #180904",
"o  c #071908",
"O  c #191707",
"+  c #131C0C",
"@  c #0F1E10",
"#  c #161D12",
"$  c #240D03",
"%  c #290E00",
"&  c #2B1205",
"*  c #241807",
"=  c #25130B",
"-  c #2C150B",
";  c #2D1A0C",
":  c #351705",
">  c #331A0B",
",  c #3A1D0B",
"<  c #271D12",
"1  c #351D11",
"2  c #032305",
"3  c #08270A",
"4  c #042C0B",
"5  c #1A2608",
"6  c #03340E",
"7  c #0B380A",
"8  c #173506",
"9  c #163A01",
"0  c #193D00",
"q  c #143B0C",
"w  c #032711",
"e  c #182815",
"r  c #023510",
"t  c #0B3614",
"y  c #013A12",
"u  c #193716",
"i  c #262609",
"p  c #39220D",
"a  c #27370A",
"s  c #323B0C",
"d  c #292816",
"f  c #372816",
"g  c #253415",
"h  c #273718",
"j  c #2C3D1A",
"k  c #353519",
"l  c #0B3526",
"z  c #1A3923",
"x  c #382921",
"c  c #283D23",
"v  c #383823",
"b  c #48260B",
"n  c #522C0D",
"m  c #432612",
"M  c #462913",
"N  c #4C2C14",
"B  c #4D2C16",
"V  c #522E14",
"C  c #582F11",
"Z  c #4B3817",
"A  c #553215",
"S  c #5B3414",
"D  c #593619",
"F  c #5B351A",
"G  c #633B16",
"H  c #663B18",
"J  c #643C1A",
"K  c #703F17",
"L  c #413425",
"P  c #1C4302",
"I  c #1A4708",
"U  c #13510D",
"Y  c #064717",
"T  c #1B4314",
"R  c #1A4B14",
"E  c #174518",
"W  c #1C4B1C",
"Q  c #1A5418",
"!  c #1E5919",
"~  c #224C06",
"^  c #29470B",
"/  c #334A0B",
"(  c #245209",
")  c #255508",
"_  c #265A0A",
"`  c #2B5D0C",
"'  c #38580B",
"]  c #284718",
"[  c #33441D",
"{  c #384819",
"}  c #275618",
"|  c #375916",
" . c #1F671A",
".. c #2A630B",
"X. c #31640E",
"o. c #3A650A",
"O. c #3E720C",
"+. c #266819",
"@. c #386517",
"#. c #396A12",
"$. c #29731A",
"%. c #39761C",
"&. c #194727",
"*. c #12402D",
"=. c #0C5028",
"-. c #085A2A",
";. c #195628",
":. c #194C35",
">. c #1E5435",
",. c #294725",
"<. c #374A24",
"1. c #235B25",
"2. c #275928",
"3. c #385827",
"4. c #225839",
"5. c #205C3E",
"6. c #375B32",
"7. c #1A632A",
"8. c #0A6635",
"9. c #116A31",
"0. c #156835",
"q. c #187739",
"w. c #246827",
"e. c #386827",
"r. c #287329",
"t. c #3B7629",
"y. c #256737",
"u. c #396936",
"i. c #267738",
"p. c #3A7835",
"a. c #435B03",
"s. c #485017",
"d. c #68411B",
"f. c #6C421C",
"g. c #73451D",
"h. c #774A1E",
"j. c #486908",
"k. c #536A0E",
"l. c #49740B",
"z. c #537306",
"x. c #577809",
"c. c #5D7C0B",
"v. c #476916",
"b. c #4C7513",
"n. c #457418",
"m. c #557815",
"M. c #637814",
"N. c #474727",
"B. c #48572A",
"V. c #50512F",
"C. c #485834",
"Z. c #585A35",
"A. c #724521",
"S. c #734721",
"D. c #7C4C22",
"F. c #45652C",
"G. c #58682D",
"H. c #457727",
"J. c #537A23",
"K. c #476A34",
"L. c #596836",
"P. c #477836",
"I. c #547837",
"U. c #636A28",
"Y. c #616D3C",
"T. c #64773A",
"R. c #215E40",
"E. c #167443",
"W. c #277946",
"Q. c #317345",
"!. c #467246",
"~. c #677842",
"^. c #727947",
"/. c #804F23",
"(. c #875525",
"). c #97612A",
"_. c #3D821E",
"`. c #1C8B3D",
"'. c #1F913E",
"]. c #3B8736",
"[. c #398832",
"{. c #5C8409",
"}. c #4C8618",
"|. c #59841A",
" X c #65880C",
".X c #678815",
"XX c #6F9510",
"oX c #77991A",
"OX c #71AB0D",
"+X c #7AA318",
"@X c #48852A",
"#X c #598725",
"$X c #52942D",
"%X c #488637",
"&X c #558538",
"*X c #5B943A",
"=X c #659626",
"-X c #69843C",
";X c #689334",
":X c #77AA31",
">X c #1C8943",
",X c #368C46",
"<X c #289347",
"1X c #389548",
"2X c #2F9455",
"3X c #23965B",
"4X c #3CA356",
"5X c #3C9E62",
"6X c #5B8943",
"7X c #459B45",
"8X c #579948",
"9X c #458C56",
"0X c #488955",
"qX c #728C45",
"wX c #728B4F",
"eX c #669A43",
"rX c #779645",
"tX c #47A74B",
"yX c #47A859",
"uX c #53B153",
"iX c #68A944",
"pX c #6EB348",
"aX c #72B84B",
"sX c #72A951",
"dX c #4F9965",
"fX c #5CA76E",
"gX c #56B166",
"hX c #6AB371",
"jX c #73C24B",
"kX c #7AC75A",
"lX c #77C569",
"zX c #76CA69",
"xX c #82AB1C",
"cX c #91BA1B",
"vX c #89AB23",
"bX c #90B925",
"nX c #85B935",
"mX c #99C51B",
"MX c #9BC622",
"NX c #91C63A",
"BX c #A1CD23",
"VX c #A7D327",
"CX c #A8D527",
"ZX c #AFDB2C",
"AX c #B1DE2C",
"SX c #B7E42C",
"DX c #90B158",
"FX c #93A561",
"GX c #A9B172",
"HX c #89C55A",
"JX c #88DC67",
"KX c #AEC56D",
"LX c #89E06A",
"PX c #69B781",
"IX c #C2C092",
/* pixels */
"vXvXvXbXZXSXAXZXZXZXZXZXZXZXZXZXZXZXZXZXZXZXZXZXZXZXZXZXZXbXbXvXvXXX X Xa.a.~ 0 P P P P P P P P P P P P / a.' c.vXvXvXvXvXvXvXvX",
"xX+XvXvXMXvXbXvXVXCXCXCXBXCXCXCXCXCXCXCXCXCXBXVXBXMXVXVXbXvXvXxXxX.Xj.a.a.' P P P P P P P P P P P P P P P ~ ' j. X+X XoXoXXX{.+X",
"j.j. XoXoXoXoXoXMXMXCXMXvXBXBXBXBXBXBXBXBXMXoX+XcX+XcX+Xc..XoXoXj.x.j.j.j.~ ~ ~ ~ ~ ~ ~ ~ ~ ~ ~ ~ ~ ~ ~ ~ ~ ' x.c.z.z.c. Xz.z.c.",
"z.z.M.oX+XoXoXoXc.XXoXoXoXcXmXmXmXmXmXcXoXoX.Xj.z..XoXz.z.{.oXx.j.j...P o.) ( ) P ~ ( ( ) ( ( ( ( ( ( ( ( ( o.o.{.{.x.c.c.c.l.c.",
"` j. X Xx.XX X{.z. X.X.X.XoXxXmXcXmXmXmX+X X.Xz.x.z. Xz.z.z.c.z.z.o.9 9 9 ~ ( 9 9 0 _ _ P ( _ ` ( _ _ _ ` _ ` _ _ ` j.{.o.X.( z.",
"` z.c.x.x.x.x.x.x. X X.X.X.X.XoX+XxXcXXXc.x.x.x.l.x.{.x.l.x.c.x.l._ 9 9 9 9 9 9 9 ~ ..) 9 I ` _ 9 9 _ ` ~ 0 ) ` ..P o...9 9 P ~ ",
"` x.{. Xx.{.c.{.O.c.c.{.M.M.M.M..XXX.X.Xc.{.{.{.X.O.l.x...X.X.` 0 0 0 9 0 0 0 0 9 ~ I 0 0 9 ` ( 0 0 ( ..0 0 0 _ I 0 9 0 0 0 0 0 ",
"..X.0 0 I #.{.P ) l.{. X X X Xc.c.c.k. X Xx.` ` _ ..) P 0 I ..I 0 0 0 5 5 0 9 8 0 0 0 0 0 0 _ 0 0 0 P I 0 0 0 0 0 0 0 0 0 0 0 0 ",
"0 P 0 0 I _ ~ 0 0 0 '  X X X Xk.c. Xx. X Xx.` ` ~ P ..0 0 0 0 0 0 P 0 . 5 0 u u U 0 P P U 0 0 0 0 0 0 0 0 9 0 0 0 P 8 0 3 o 0 0 ",
"0 0 0 0 ( P 0 0 0 0 ~ l.{. XXXx.c.XXc. X{.}._ ..` 0 0 0 0 0 0 0 0 . O $ i } u &.E 8 =.u d 7 0 P O 0 0 0 9 o 0 0 8 + + 3 2 o u I ",
"P 0 0 3 P 0 0 5 5 8 0 u ] P XX XXXOXXXXX` ..P P ..I 0 0 0 5 5 5 i $ ; V.h 2.h c f e ,.d d E q r 2 . a P o o 2 9 o o + # @ 3 ] g ",
". 8 6 r 3 7 P i $ . . & k | |.XXXX) O.) ) ..0 0 0 0 0 0 a ; ; = d N.V.V.,.e.c h c v d x c 2.z y 4 + p * o 2 2 2 o o 2 # e u g $ ",
"# . . t y y q & , M M - > ; j .Xm.u 0 0 0 0 0 0 0 0 P a k f [ 3.3.F.Z.L.e.P.,.h ,.v d x ,.,.c y y * B ; 3 y r 2 2 2 2 3 # < & i ",
"!.d . . t >.e @ O h p B B p > k.d e W u 0 0 0 i 0 0 i 3.%XP.3.B.B.3.L.Y.K.3.<.k c <.d L 2.Q.Q.dX>.& V 1 # z y 2 + O O . & > [ W ",
"&.&.* . O + # o + h d - B V , $ d e &.z q 8 $ B 8 ; 3.K.%X%XK.F.F.F.L.Y.L.F.K.K.d k k N.!.dXdXPX9X& D m < z i > , m p p h { B.&.",
"&.fX2.. # o @ o + c c $ , A m $ = e u u * . p M & k K.F.P.*X*XI.I.I.T.L.~.K.K.K.!.k $ L 0XhX9XhXhX= V D - > V V V k t Y 2.B.[ c ",
"fX0X2.$ O e e e + v 6.p > m D - $ O . $ & > V & > K.%XP.I.iXiXeXeX*XeX-X^.I.P.sXlXwXN.; v y.i.hXhXv p J V V G d &.z e u 6.I.<.@ ",
"w.1.1.$ * e 5 e e j K.B.p > A V > & $ p m B b > k P.&X*XeXiXpXpXiXiXiXrX-X&XP.lXlX~.Z.L.C.* W hXhX,., S.D G p ;.;.z e ,.P.P.6.e ",
"1.1.1.; $ i e e e j K.I.> m B D m A , m B A M ; K.P.&X*XiXaXjXaXaXaXpXeXrXqX8XhXsXL.Y.L.fXC.* 0X0Xy.; S.D S i ;.;.,.,.K.I.P.6.c ",
";.1.1.] , % & d e [ F.I.p A p V A D B M D M > 3.P.I.6XeXiXjXjXaXaXpXiXeXDXrXqX6X~.L.~.I.P.hXv h 1.W : K J J i ;.;.4.!.K.%XP.W &.",
"w &.1.r.k , & % - k F.I.f A B m d.S.S.S.p m <.p.P.6X&X*XkXaXjXjXJXaXiXiXsXrX-XqXI.L.T.%Xp.p.u.> 1.5 V f.g.G h &.;.;.2.P.%Xe.E W ",
"w t w.w.0XN.B B , m > k p b A M J S.f.B : 3.u.P.hXsX&XeXHXaXjXkXLXJXiXiXHXDX-XT.T.L.~.%X[.e.r.[ i : J D.S.M dX;.;.;.p.%XiXe.t Q.",
"w 4.w.w.0XfXC.p B B B B , : J M A S.D , j t.u.sXlXlX&XeXHXaXjXJXJXJXpXiXHXrXrX-XT.L.~.P.[.t.r.u.m f.f.D.A !.fX9X&.;.p.8XlXp.7 Q.",
"w Q.r.1.,XfXfX!.f b D A B b H D V g.D b k e.p.gXlXlX&X*XkXaXjXJXJXJXaXiXDXrXrX-XT.L.6XH.t.t.u.fXD g.D.f.Z fXfXfX>.1.%XhXlXQ.7 2.",
"o 0.r.w.i.2X5X2XI.K.s.A H d.d.H V H S.H p e.p.yXgXgX&X&XaXpXaXzXJXJXaX*XsXrXrXrX-XL.8Xt.t.e.9X!.g.(.D.b 0X5X5XfXy.w.%XlXhX!.t 6.",
"o E.;.+.y.3X3X4X6XI.I.I.B f.f.g.V S S./.b 3.].yXyXgXP.I.iXiXaXzXJXzXpX*XeXrXqXrXrXT.yXe.t.2.3XZ D./.f.<.3X3XyX5X;.t.7XgXhXq.,.] ",
"o E.W +.q.3X<X7X8X6X&X&XB.b g.g.G A d.(.S { p.yXyXyXe.K.*X;XiXkXzXzXiX&X&XrX-XrXrXwXyXe.e.1.W.S /.g.D u <X3X<X3XW t.7XgXtX0.P.,.",
"o 7.Q ! r.>X'.tXuXeX&X&XI.m S d.g.V S (.H S p.yXyX9X3.e.&X*X;XaXzXzX8XP.F.rXT.rXDXwXyXe.2.} y.G /.g.b E '.3X'.9.1.P.7XuX2X7.u.u ",
"o Q ! ! q.`.<XtXuXiX&X&XI.k A d./.D D D.g.G 6.5XyXQ.<.e.P.&X*XiXuXuX8Xe.e.wXL.rXrXqXp.e.} W w.S f.g.b ;.`.`.'.=.e.P.tXtX<XE ,.u ",
"o R ! R q.`.<X7XuXuX6XI.K.k b S (.G V g.g.n y.4X5Xu.] 3.H.H.@X%XuXtX7X3.K.Y.L.qXqXY.e.+.} W i.G d.f.G ] q.>Xq.u e.%X7XtX`.4 6.e ",
"o R Q T 0.q.,XtXtXtX6XI.F.<.b G h.H S G g.p w.1X2X,.] 3.H.H.H.H.tXtX%X<.~.L.L.T.T.L.3.} ! R 0.S G H h.k q.>X9.T t.%X7X1Xq.2 ,.u ",
"o R R T 7.q.,XtXtXtX8XI.3.h b H h.D.G C G 8 7.<X<Xe g 3.e.e.H.H.1X1Xp.B.~.Y.G.Y.L.V.3.R Q T 0.G G D d.n 9.q.9.] H.%X7X>X9.2 c ,.",
"  R R T ;.E.1XtXtXtX8XF.<.u b G h.(.g.b i t 0.>Xi.5 e | e.e.e.t.].,X2.B.Y.Z.B.Z.V.v <.R Q T 0.K h.H C n 0.9.8.2.P.P.1XE.=.2 u ,.",
"o T R T ;.W.1XtXtXtX%XK.j e n H g.(.h.n 4 4 -.E.u + + ] | | @.@.e.2.g V.V.V.N.V.<.v <.R R T [ K (.G b n 0.8.;.e.@XP.1XE.6 2 4 ,.",
"-.T T q E i.,X7XtXyXP.K.u 5 A d.g.).g.n 4 4 =.8.8.8.0.} } } | | } &.u V.N.N.v v v v v R T E : H /.g., n ;.8.;.t.@Xt.W.=.2 4 t u ",
"E T q q T i.,X7XtX7XK.B.e d b f.g.).g.b 4 4 t 8.8.8.8.W T ] } } ] 7.0.C.k v k v k v v R T i , h.(.D.b C &.8.1.t.H.e.7.8.-.8.-.e ",
"q q q q T i.].7X7X7XF.<.e 5 n H /.(.h.b 3 4 4 -.-.-.-.Y q q T T T T -.v d d k k k v k T q i V h.h.(.G S -.-.2.H.t.| Y -.-.-.=.e ",
"8 8 u q T e.@X%X%X].B.c e O n S D.D.h.b 3 2 2 r -.=.Y q q q q q q q q k d d k d k v v T q p G h.g.(.H p -.-.| t.t.} 2 y -.-.=.e ",
"h ~.s.Z.u e.@X@X%X].<.e e * b A D (.G b 3 2 2 2 q 7 Y q q q q q q q g f d d k k d v L u 8 C H g.f.(.S g =.q e.t.e.q 2 2 2 r e # ",
"+ a s i e W [.[.@Xt.j e @ & A S A D.S b 2 2 2 8 3 2 2 7 8 q Y Y Y 8 f d d k d k d f f h s S V S d./.V N.N.B.B.[ | Y 6 3 6 4 @ o ",
"O d O 5 N.,.[.@X[.3.j e O : d.d.A D S p r 2 4 Y 7 6 6 6 7 Y Y Y Y ] [ <.<.d k i < d d 1 V V J A d.D.b i s { k g d 4 Y Y r @ o   ",
"o <.o o o h t.K.B.j j o . M f.d.D S C & # t y 7 7 7 Y Y Y Y E Y ] <.[ <.d d < < < # < ; b H g.J H S.b * i i + O N.o Y 3 +       ",
"    o o e ] B.F.[ h g   $ A d.H d.A V & + + + o 4 y y y y q ] g h h [ k < < = * < = = & J D.D.f.S f.b * O Z.# e e     o         ",
"y 6 2 5 h ,.3.F.3.3.<.i m A S.d.d.D B & r 3 O O + r y y y r < u u 4 r r t N.m.#XH.s.p b S./.D.J V H V . o e g [ [ [ +   u +     ",
"Y 3 O u ,.<.wXT.I.G.!.- V J S.S.f.J B > 3 r 6 O 6 @ 3 y y e t y r r r T | J.|.;X;X;XZ J (./.f.B p D A $ 3 u h <.[ <.u [ [ e     ",
"3 3 u h j { ~.U.T.G.f > B J D.D.S.S.B , O 4 @ 6 6 6 o 6 Y Y y y y r 6 } F.' b.|.|.|.B D.D.S.D m , D A & W } } e [ h u ] [   o y ",
"_ q h g C.^.B.G.G.B.$ m D J D.g.(.S.V & O r Y _ E ~ 9 7 U Y Y U Y Y 7 } F./ ' o.' / D g.J D m p ; D D p j @.^   3 T u u     6 y ",
"| wX^.I.B.[ [ B.N.p > s.U.<.D D.S.S.D $ 5 _ X.X.t.X...X.X.X.! X.Q _ ( ( ( X.X.X.X.a S A A B b A b B J A * X.^ } #.$.} ` o ..T R ",
"<.L.L.^.GX6.[ j d f s.m.W ; B d.> A D $ 8 X.#.r.H.@X=X|.O.%.#.#.#.#.#.#.#.#.#.#.' > b p 1 M , A M M D d.> ' @.$.+.@.#.#.#.#.#.#.",
",.C.B.B.C.6.c ; m U.v.j.{ j M D > - J > s n.H.DXnXnXKXKXNX:X;Xt.%.%.O.O.O.O.n.n.i V m > ; A > m M , M D A i ' ' ' ' #.j.o.o.o.o.",
",.C.6.<.h O > B Z m.v.o.} d M B ; $ m Z | $X#XGX:XnXHXNXNXNXKX=X%.%.n.b.l.l.l./ & m > - , B : p ; > = Z U.s.b.|..Xm.b.n.n.n.l.j.",
",.h < = & ; 1 & s.b.b.' } h M p ; = X { @XeX#X#X:X:XnXnXnXKX:X=X#Xk.k.b.b.t.v.. , ; X X M m & a v.v.s..X.Xm.b.@.} } @.n.b.b.b.@.",
"O = = - = i i = k.b.j.( ] i m 1 ; $ X [ @XGXJ.#XDX:X:XDXnXGX:XrX#Xm.m.x.o.| g X > . a X M p . ' | |.b.b.v.v.@.@.v.v.v.b.b.m.m.m.",
". O i a 5 O = - / v.' } v.k.v.| d O / | H.n.v.n.#X#X=X#X=X#X#XIX*Xm.z.| ' ' i . = / s s.m.v.s ' ' m.m.@.v.#.| ] } | ' ' ' ' ' v.",
"5 a ^ O . . X X i v.o.m.v.@.} g X ^ / v.%.%.v.v.I.FXJ.J.J.J.J.J.H.|.@.] ] / O = i | E ] v.b.b.' / v.@.#.` } } ] / / / / / / / | ",
"a ^ ] = ] O X i / v.v.@.} } h - X ^ ^ | $.@.| | $.wXv.v.n.H.H.H.@X#X} u T u 5 = a ^ O u } ` o.' / / @.} } } e i / ^ ^ ^ / / / m.",
"g +.+ O  .O 3 v.m..X@X@.( e 2.. u  .E R $.@.@.@.$.p.t.H.n.H.H.H.H.n.m./ $.+.5 O a a O 8 e +.@.v.m.b.o.a a 5 X O ( ^ ] } ] | m.n.",
"n.[..X$.@.| .Xt..XoX=X[.%.J.i.w. .r.i.i.$.@.e.r.+.r.p.n.H.n.H.n.v.v.m.w. .t.v.#./ | ^ ^ +.+.+.v.c.b./ a / s.a +.%.| e.t.=X@X+X=X",
"w.i._. . .$.$. .$.#Xt.W.%.w.W.W. .r.y.W.+.+.i.i. .w.Q.@.p.@.p.P.v.r.w.i.w.p.#X}.r.%.%.=X$.+.[.$._.}.b.n.%.$.$.$X$XvX*X$X=X=X%.}.",
"y.1.! ! ! ! ! ! ! ! y.W.1.y.R.W.! y.W.y.! 1.1.y.! ! W.y.y.! ! i.W.7.i.y.Q.;.! y.! ! ! ! } ! w.W.w.+.! ! ! ! ! ! ! y.y.y.! ! ! ! ",
">.&.W >.&.W y.;.T E R.R.>.4.5.>.E 4.5.E T E >.5.&.T >.5.5.E T &.5.R.5.R.>.&.5.4.W W T T T T E ;.5.>.;.E T E 5.;.;.R.5.>.&.&.;.>.",
":.:.:.:.:.:.:.:.u u :.:.:.:.:.:.:.:.:.:.:.:.:.:.:.:.:.:.:.&.z :.:.:.:.:.:.:.:.:.:.:.:.&.:.&.&.:.:.:.:.:.:.&.:.:.:.:.:.&.:.:.:.:.",
"*.*.*.*.*.*.*.*.*.*.*.*.*.*.*.*.*.*.*.l *.*.*.*.l *.*.*.*.*.*.*.*.*.*.l *.*.*.*.l *.*.*.*.*.l l l l *.*.*.*.*.*.*.*.*.*.*.*.*.*.",
"l l l l l l l l l l l l l l l l l l l l l l l l l l l l l l l l l l l l l l l l l l l l l l l l l l l l l l l l l l l l l l l l "
};
