/* XPM */
static char *c69aab6333574aa2ec31d1e94fde47654AJ96Of2WRnku9hq[] = {
/* columns rows colors chars-per-pixel */
"64 64 219 2 ",
"   c #050503",
".  c #080705",
"X  c #090906",
"o  c #0D0D0A",
"O  c #100F0D",
"+  c #12110F",
"@  c #151412",
"#  c #181715",
"$  c #191916",
"%  c #1D1C1A",
"&  c #211F1C",
"*  c #192C15",
"=  c #1A3C15",
"-  c #193B1D",
";  c #21211F",
":  c #0C3627",
">  c #0F3C2B",
",  c #183B23",
"<  c #242422",
"1  c #282624",
"2  c #212921",
"3  c #292826",
"4  c #2D2C2A",
"5  c #312E2B",
"6  c #29392C",
"7  c #31312E",
"8  c #393835",
"9  c #463E36",
"0  c #1B4816",
"q  c #1B461C",
"w  c #1D5417",
"e  c #1D5A1B",
"r  c #1E6319",
"t  c #1F6A1A",
"y  c #20661B",
"u  c #226B1C",
"i  c #21731C",
"p  c #227B1C",
"a  c #1C4C23",
"s  c #15432E",
"d  c #1A4628",
"f  c #1E5726",
"g  c #174933",
"h  c #1B4E37",
"j  c #1B4F38",
"k  c #1D5334",
"l  c #1D543A",
"z  c #1E5B3E",
"x  c #2E552A",
"c  c #215A3B",
"v  c #1F6322",
"b  c #236927",
"n  c #3A682E",
"m  c #287627",
"M  c #267A21",
"N  c #337A2D",
"B  c #23643D",
"V  c #246938",
"C  c #257637",
"Z  c #357C34",
"A  c #484A37",
"S  c #63513B",
"D  c #4B6B3B",
"F  c #225C40",
"G  c #3A5B41",
"H  c #1F6040",
"J  c #246444",
"K  c #266B44",
"L  c #286B48",
"P  c #3C6945",
"I  c #277846",
"U  c #29744B",
"Y  c #2A7D51",
"T  c #4B4845",
"R  c #514E4B",
"E  c #54534A",
"W  c #585652",
"Q  c #615E59",
"!  c #4A6A49",
"~  c #507450",
"^  c #676A54",
"/  c #6B6863",
"(  c #736D68",
")  c #75726D",
"_  c #7A7868",
"`  c #7B7773",
"'  c #8C6E57",
"]  c #8D7867",
"[  c #847E77",
"{  c #23801C",
"}  c #2A8427",
"|  c #31852E",
" . c #2A8136",
".. c #368734",
"X. c #3C833C",
"o. c #3C8A3B",
"O. c #2A834A",
"+. c #378942",
"@. c #2C8A54",
"#. c #318E52",
"$. c #369757",
"%. c #3AA058",
"&. c #438C43",
"*. c #458B46",
"=. c #4A8D4C",
"-. c #52844B",
";. c #41904D",
":. c #4B904D",
">. c #498A58",
",. c #588755",
"<. c #459653",
"1. c #4E9151",
"2. c #519455",
"3. c #579558",
"4. c #5C945B",
"5. c #549A5C",
"6. c #668A5B",
"7. c #60955E",
"8. c #588B62",
"9. c #579D60",
"0. c #599E62",
"q. c #589669",
"w. c #6C8763",
"e. c #778863",
"r. c #669965",
"t. c #75986D",
"y. c #739476",
"u. c #7A9C73",
"i. c #59A165",
"p. c #5CA66B",
"a. c #5EA96F",
"s. c #5FA672",
"d. c #5FAA70",
"f. c #67A26D",
"g. c #72A068",
"h. c #62AD75",
"j. c #69A976",
"k. c #77A274",
"l. c #66B37C",
"z. c #6AB37D",
"x. c #8C896D",
"c. c #85827D",
"v. c #879877",
"b. c #A98A72",
"n. c #AB8C78",
"m. c #B28D77",
"M. c #B5937C",
"N. c #87A27D",
"B. c #7DAD81",
"V. c #68B680",
"C. c #6BBA85",
"Z. c #6EBE8A",
"A. c #73B281",
"S. c #7CB488",
"D. c #6FC08C",
"F. c #70C18E",
"G. c #71C390",
"H. c #8D8B83",
"J. c #978C83",
"K. c #8D9E86",
"L. c #9A958B",
"P. c #9D9993",
"I. c #A5998A",
"U. c #B69A88",
"Y. c #A39D96",
"T. c #B69F90",
"R. c #8AA884",
"E. c #96A88A",
"W. c #8CB18B",
"Q. c #9DAF95",
"!. c #8AB992",
"~. c #97B896",
"^. c #A1A68F",
"/. c #A8A499",
"(. c #B8A597",
"). c #B5AA9D",
"_. c #A6B69C",
"`. c #ADA9A2",
"'. c #B7ADA5",
"]. c #ADBCA4",
"[. c #B9B7AA",
"{. c #BDB5AC",
"}. c #BDBAB2",
"|. c #C29F89",
" X c #C6A895",
".X c #CBA892",
"XX c #D2B19C",
"oX c #CFB7A7",
"OX c #C7B6AA",
"+X c #C4BCB2",
"@X c #CABEB5",
"#X c #9EC4A3",
"$X c #ADC8AD",
"%X c #B6C2AD",
"&X c #C5C3B5",
"*X c #C6C6BA",
"=X c #CBC4BC",
"-X c #D1C4BB",
";X c #CBC6C0",
":X c #CEC9C1",
">X c #D3CCC4",
",X c #DACDC4",
"<X c #D5CFC8",
"1X c #CDD4C4",
"2X c #D6D1CA",
"3X c #DAD4C9",
"4X c #DAD3CC",
"5X c #DED7D0",
"6X c #DED9D2",
"7X c #E2DBD4",
"8X c #E5DED8",
"9X c #E7E0D7",
"0X c #E6E1DA",
"qX c #E9E3DD",
"wX c #ECE7E1",
"eX c #F2EBE5",
"rX c #F5EEE9",
"tX c #F6F1EB",
"yX c #F8F4ED",
/* pixels */
"G.G.G.G.G.G.G.G.G.G.G.G.G.G.G.G.G.G.G.G.G.G.G.G.G.G.G.G.G.G.G.G.G.G.G.G.G.G.G.G.G.G.G.G.G.G.G.G.G.G.G.G.G.G.G.G.G.G.G.G.G.G.G.G.",
"G.G.G.G.G.G.G.G.G.G.G.G.G.G.G.G.G.G.G.G.G.G.G.G.G.G.G.G.G.G.G.G.G.G.G.G.G.G.G.G.G.G.G.G.G.G.G.G.G.G.G.G.G.G.G.G.G.G.G.G.G.G.G.G.",
"G.G.G.G.G.G.G.G.G.G.G.G.G.G.G.G.G.G.G.G.G.G.G.G.G.G.G.G.G.G.G.G.G.G.G.G.G.G.G.G.G.G.G.G.G.G.G.G.G.G.G.G.G.G.G.G.G.G.G.G.G.G.G.G.",
"F.F.F.F.F.F.F.F.F.F.F.F.F.F.F.F.F.F.F.F.F.F.F.F.F.F.F.F.F.F.F.F.F.F.F.F.F.F.F.F.F.F.F.F.F.F.F.F.F.F.F.F.F.F.F.F.F.F.F.F.F.F.F.F.",
"D.D.D.D.D.D.D.D.D.D.D.D.D.D.D.D.D.D.D.D.D.D.D.D.D.D.D.D.D.D.D.D.D.D.D.D.D.D.D.D.D.D.D.D.D.D.D.D.D.D.D.D.D.D.D.D.D.D.D.D.D.D.D.D.",
"Z.Z.Z.Z.Z.Z.Z.Z.Z.Z.Z.Z.Z.Z.Z.Z.Z.Z.Z.Z.Z.Z.Z.Z.Z.Z.Z.Z.Z.Z.Z.Z.Z.Z.Z.Z.Z.Z.Z.Z.Z.Z.Z.Z.Z.Z.Z.Z.Z.Z.Z.Z.Z.Z.Z.Z.Z.Z.Z.Z.Z.Z.Z.Z.",
"Z.Z.Z.Z.Z.Z.Z.Z.Z.Z.Z.Z.Z.Z.Z.Z.Z.Z.Z.Z.Z.Z.Z.Z.Z.Z.Z.Z.Z.Z.Z.Z.Z.Z.Z.Z.Z.Z.Z.Z.Z.Z.Z.Z.Z.Z.Z.Z.Z.Z.Z.Z.Z.Z.Z.Z.Z.Z.Z.Z.Z.Z.Z.Z.",
"C.C.C.C.C.C.C.C.C.C.C.C.C.C.C.C.C.C.C.C.C.C.C.C.C.C.C.C.C.C.C.C.C.C.C.C.C.C.C.C.C.C.C.C.C.C.C.C.C.C.C.C.C.C.C.C.C.C.C.C.C.C.C.C.",
"C.C.C.C.C.C.C.C.C.C.C.C.C.C.C.C.C.C.C.C.C.C.C.C.C.C.C.C.C.C.C.C.C.C.C.C.C.C.C.C.C.C.C.C.C.C.C.C.C.C.C.C.C.C.C.C.C.C.C.C.C.C.C.C.",
"C.C.C.C.C.C.C.C.C.C.C.C.C.C.C.C.C.C.C.C.C.C.C.C.C.C.C.C.C.C.C.C.C.C.C.C.C.C.C.C.C.C.C.C.C.C.C.C.C.C.C.C.C.C.C.C.C.C.C.C.C.C.C.C.",
"C.C.C.C.C.C.C.C.C.C.C.C.C.C.C.C.C.C.C.C.C.C.C.C.C.C.C.C.C.C.C.C.C.C.C.C.C.C.C.C.C.C.C.C.C.C.C.C.C.C.C.C.C.C.C.C.C.C.C.C.C.C.C.C.",
"V.V.V.V.z.z.V.V.V.V.V.V.z.z.V.V.V.V.V.V.V.V.V.V.V.V.V.V.V.V.V.V.V.V.V.V.V.V.V.V.V.V.V.V.V.V.V.V.V.V.V.V.V.V.V.V.V.V.V.V.z.V.V.V.",
"l.l.l.l.l.l.l.l.l.l.l.l.l.l.l.l.l.l.l.l.l.l.l.l.l.l.l.l.l.l.l.l.l.l.l.l.l.l.l.l.l.l.l.l.l.l.l.l.l.l.l.l.l.l.z.z.l.l.l.l.l.l.l.l.",
"l.l.l.l.l.l.l.l.l.l.l.l.l.l.l.l.l.l.l.l.l.l.l.l.l.l.l.l.l.l.l.l.l.l.l.l.l.l.l.l.l.l.l.l.l.l.l.l.l.l.l.l.l.h.E.!.l.l.l.l.l.l.l.l.",
"l.l.l.l.l.l.l.l.l.l.l.l.l.l.l.l.l.l.l.l.l.l.l.l.l.l.l.l.l.l.l.l.l.l.l.l.l.l.l.l.l.l.l.l.l.l.l.l.l.l.l.l.h.! /.-XA.l.l.l.l.l.l.l.",
"l.l.l.l.l.l.l.l.l.l.l.l.l.l.l.l.l.l.l.l.l.l.l.l.l.l.l.l.l.l.l.l.l.l.h.q.q.j.S.z.l.l.l.l.l.l.l.l.8.! ~ ~ 6 o # ( &X!.l.l.l.l.l.l.",
"h.h.h.h.h.h.h.h.h.h.h.h.h.h.h.h.h.h.h.h.h.h.s.s.q.8.8.y.~.#X#X$X_.6 @ o < =X7X4X%X~.q.q.q.q.>.P % & ; % @ % < & T P.~.h.h.h.h.h.",
"h.h.h.h.h.h.h.h.h.h.l.z.A.A.A.A.A.r.~ ~ x 6 6 2 * < R 6XqXqX8X6X`.X X X P.rXeX*X/ < $ o + @ # # + $ 4 1 3 @ < 3 3 1 ].z.h.h.h.h.",
"h.h.h.h.h.h.h.l.S.~.[.*X=X*Xc.) R $ @ @ o X o o @ @ R 7X8X8X7X8X<X$ o T eXrX0X< o % 3 4 4 4 3 #   o & $ ; $ @ 3 3 8 [ !.h.h.h.h.",
"h.h.h.h.h.h.~.}.*X:X:X+X{.2XQ o o o X . X @ < $ $ o 4 ( 8X7X>X` / L./.0XeXrX`.# @ @ $ < 4 7 3 < @ o # % 3 3 @ # % 3 A 0XA.h.h.h.",
"d.d.d.d.j.}.=X:X<X2X:X=X=X4X{.8         @ & @ @ @ X X Q 7X<X7   $ 4XwXeXeXrX/.# o o # $ @ $ < 3 ; < < % Q 8 % O @ 4 3 ` 1Xj.d.d.",
"a.a.a.p.Q.>X4X2X2X4X4X4X>X4X4X+X7 O + $ 3 ; # @ @ o X A *X) X X 1 0XwXeXeXrX'.O o   o + $ # @ % ; 3 3 < :XQ ; # @ 3 3 ; J.$Xh.a.",
"p.p.p.>.[.2X4X4X6X6X>X4X>X4X4X4X8 ; % < < & # # @ X o o & + + # ` tXeXeXeXeXY.o X . .   o @ $ % 3 3 3 4 4X4XP.R 4 % 3 ; c.qX~.f.",
"p.p.p.P L.W }.4X4Xc.3 `.>X4X4X'.+ % % $ % % ; % @ o @ @ # % < 7 8XtXeXqX{.9X;X% X X o o X + $ < 3 3 3 Y.qX7X4X8X0XY.7 R 4X,XXXv.",
"p.p.p.,./ < / 2X/.  X P.>X4X7X` $ % + % % ; < ; @ % & $ ; 3 7 R yXtXwX) < c.eX8 @ X + % $ $ < 3 3 3 < {.>X2X>X@X>X4X<X0X3X@Xm.6.",
"i.i.i.k.[ 7 ) 4X[ . < =X<X4X8X) @ # @ ; & < < < < ; < < 3 4 8 c.tXrX6X8 3 R 4X7 @ X + < 3 3 3 < < 3 < y.f.j.B.W.~.~.W.R.&X/.e.0.",
"i.i.i.f._ T ) <X`.T {.6X4X<X6Xc.+ o $ % < ; ; < 3 3 3 3 4 8 T 2XeX5XW < 3 8 / < X . + < < $ $ $ % 7 ~ 0.i.i.i.i.i.i.i.i.i.0.0.i.",
"i.i.i.f.^ H.`.>X4X4X6X7X4X>X4X4X4 + % % $ ; < 3 3 < < < T >X>XwXqX( @ % 3 3 9 7 % $ % % $ . # $ 4 8.i.i.i.i.i.i.i.i.i.i.i.i.i.i.",
"0.0.0.f.w.[.>X>X4X4X4X4X<X=X<X2X4 @ # % + + # % < < ; @ ) qXwXwX6X1 o o < Q T o @ $ @ 4 E 3 3 H.k.0.0.0.0.0.0.0.0.0.i.0.0.0.0.0.",
"9.9.9.r.w.%X>X<X4X<X4X<X@X+X>X:X3 ; $ ; @ o o O @ @ O @ '.0XwXwX6X3 # X $ =X/ % R X 3 2X7X/.+X_.9.9.9.9.0.0.9.9.9.9.9.9.9.9.9.9.",
"9.9.5.r.w.].>X4X4X<X>X=XOX+X+X>X( % 3 < % @ + o o X X H.0XqXqXwXqX/ R o % 7X8X>XL.o c.8XqX9X3Xf.5.9.5.5.5.5.5.5.5.5.5.5.5.5.5.5.",
"5.5.5.0.w.].<X4X4X<X<X-X=X+X{.+X+X; $ < $ @ O o X X ( 7X8X0X0X0X8X=X8 o R wXwX5XY.8 6XqXqX8X].5.5.5.5.5.5.5.5.5.5.5.5.5.5.5.5.5.",
"5.5.5.0.w.].<X4X4X<X<X-X=X+X{.'.L.o o o O X . o o T 4X8X8X8XqX0X9X+X4 8 Y.qXwX8X7XqXyXrX9X1Xr.5.5.5.5.5.5.5.5.5.5.5.5.5.5.5.5.5.",
"5.5.5.0.t.%X<X<X4X<X>X-XOX).'.).J.X X X X X & H./.<X6X7X8X7X8X0X8X-XT & :XeXtXqX8XyXtXqX5Xk.5.5.5.5.5.5.5.5.5.5.5.5.5.5.5.5.5.5.",
"2.2.2.0.v.&X<X>X>X>X'. XXXm.n.(.).5   X o o [ >X>X<X3X<X,X<X,X3X,X).E $ 2XwXrXqXqXwXqX7X_.2.2.2.2.2.2.2.2.2.2.2.2.2.2.2.2.2.2.2.",
"2.2.2.r.E.:X<X<X>X(.M.oXoX.XM.n.(.T._ 5 & ( OX@X-X-X-X@XoXOX X X(.I.I.Q 4XwXeX7X+X4X5X:X0.2.2.2.2.2.2.2.2.2.2.2.2.2.2.2.2.2.2.2.",
"2.2.2.r.+X>X>X>XOXm..XXXXXXX|.m.n.U.T.(.(.(.OXOXoXoXoXoX XU.I.v.r.r.v.}.4X8XqX5X7X8X<XW.2.2.2.2.2.2.2.2.2.2.2.2.2.2.2.2.2.2.2.2.",
"1.1.1.u.=X>X>X=Xx.b..X|.U..X|.M.m.m.M.b.n.U.U.T.T.(.(.I.v.r.2.1.1.1.2.t.>X7X8X<X'.{.].3.1.1.1.1.1.1.1.1.1.1.1.1.1.1.1.1.1.1.1.1.",
"1.1.1.^.=X>X=XQ.2.6.n.m.' U.x.' e.6.6.6.e.x.x.u.t.7.2.2.1.1.1.1.1.1.1.6.=X6X8X%Xw.t.3.1.1.1.1.1.1.1.1.1.1.1.1.1.1.1.1.1.1.1.1.1.",
"1.1.7.&X=X>X+Xr.1.2.v.' ] b.7.^ 1.1.1.1.1.1.1.1.1.1.1.1.1.1.1.1.1.1.1.w.'.6X8X%X1.1.1.1.1.1.1.1.1.1.1.1.1.1.1.1.1.1.1.1.1.1.1.1.",
"1.1.r.+X-X@XR.1.1.1.v.(.J._ 2.1.1.1.1.1.1.1.1.1.1.1.1.1.1.1.1.1.1.1.1.w.[ 6X0X*X1.1.1.1.1.1.1.1.1.1.1.1.1.1.1.1.1.1.1.1.1.1.1.1.",
"1.1.4.}.-X[.4.1.1.1.t.).I.x.1.1.1.1.1.1.1.1.1.1.1.1.1.1.1.1.1.1.1.1.1.! < =XqX6X2.1.1.1.1.1.1.1.1.1.1.1.1.1.1.1.1.1.1.1.1.1.1.1.",
"1.1.r.}.@XE.1.1.1.:.3.).(.v.1.1.1.1.1.1.1.1.1.1.1.1.1.1.1.1.1.1.1.1.1.w.+ `.qX4Xt.1.1.1.1.1.1.1.1.1.1.1.1.1.1.1.1.1.1.1.1.1.1.1.",
"1.1.r.+X@Xk.1.1.:.:.:.E.).N.1.1.1.1.1.1.1.1.1.1.1.1.1.1.1.1.1.1.1.1.1.t.E L.8X,Xk.1.1.1.1.1.1.1.1.1.1.:.1.1.1.1.1.1.1.1.1.1.1.1.",
"1.1.r.&X{.r.1.1.1.1.1.u.OXE.1.:.1.1.1.1.1.1.1.1.1.1.1.1.1.1.1.1.1.1.1.u.).u.:X>X4.1.1.1.1.1.1.1.1.1.o.&.1.1.1.1.1.1.=.1.1.1.1.1.",
"1.1.k.&X).4.1.1.:.*.1.4.+X].o.*.1.1.1.1.1.1.1.1.1.1.1.1.1.1.1.1.1.1.1.R.Y.2.].*X1.1.1.1.1.1.1.1.1.:.} :.1.1.1.1.1.1...1.1.1.1.1.",
"1.1.R.+XN.&.X.1.| o.1.1._.+Xo.:.1.1.1.=.1.1.1.1.1.1.1.1.1.1.1.1.1.1.1.Q.L.1._.*X1.1.1.1.1.1.1.1.1...} 1.1.1.1.1.1.&.| 1.1.1.1.1.",
"1.1.E.{.4.u X.&.{ *.1.1.N.+Xg.1.1.1.*.} :.1.1.1.1.1.1.1.1.1.1.1.1.1.2.[.I.1.~.<X2.1.1.*.*.1.1.1.=.{ ..1.1.1.1.1.1.| | <.<.1.1.1.",
"1.2./.{.Z y X.N } <.1.1.4.'._.2.1.:.} | 1.1.1.1.1.1.1.1.1.1.1.1.1.1.r.&X/.2.!.4Xk.1.=.b m 1.1.1.| p *.1.1.1.1.1.=.i | <.$.1.1.1.",
"1.4.'.{.m y +.u | $.<.:.N L.OXu.1.o.p &.1.1.1.1.1.1.1.1.1.1.<.%.1.:.-.+X'.=.!.4XQ.X.u t N $.1.&.i M =.1.1.1.1.1.X.t ..<.$.1.1.1.",
"=.! '.+Xm m #.t o.#.<.o.u D L.I.,.p M :.1.1.1.1.1.1.1.1.1.1.<.$.=.M u E.{.~ K.4X&Xm t t m #.=.M b M ..1.1.1.<.=.M t o.<.#.<.1.1.",
"Z b ^.(.~ m O.i ..@.;.M C &.W 9 S n N :.1.1.1.1.1.1.1.1.1.1.<.$.} t N L.] S ] >X-Xe.y t C O.M m  .i o.=.+.<.$. .t t Z m O.;.1.1.",
"y V ^ ' A n I b m Y  .t I &.=.m r t t N X.Z X.N m m Z =.=.1.+.@.C t &.~ x x G x.b.' x t I I t I C i ....i O.O.C t t t u O.#.1.1.",
"t V x ! D b U b b U m t U i M t t t t t t t t t t t t u b m y O.O.y m B t C L P E ^ D y I K b U C t t i t C Y C t t t t I U N X.",
"r B r Y b C K K b L b V K r t r r r e r r r r r r r r r r b b I Y b r J b V J U U r r r U K C U v r r b r b L K e e r e C U b b ",
"w B f L e K B K V J V J B w w w w w w w w w w w w w w w w f V V L V f J f B J J V w w f L L K V w w w f f e J J f w w w b L b K ",
"a c f B 0 B B F K F J F c 0 0 0 a k q 0 0 0 V I f 0 0 0 0 c J f J c a c k c F F f 0 0 f F J F f 0 0 0 0 c a c c c 0 0 0 q J B J ",
"l l l c a k z l l z z l a q q d l l q = q k z z a = = = = k l H z l k l l l l z q = a l l l l = = = = = q l k l l a = = = z z z ",
"h h h h l z l j h h h l k l h h h h g h h h h z k * * * * , h l l h h h h h h l h l l h h h h d d , d d d h h h h l h d - l j l ",
"g g g g g g g g g g g g g g g g g g g g g g g g g s , - , s g g g g g g g g g g g g g g g g g g g g g g g g g g g g g h h g g g ",
"s s s s s s s s s s s s s s s s s s s s s s s s s s s s s s s s s s s s s s s s s s s s s s s s s s s s s s s s s s s s s s s s ",
"> > > > > > > > > > > > > > > > > > > > > > > > > > > > > > > > > > > > > > > > > > > > > > > > > > > > > > > > > > > > > > > > ",
": : : : : : : : : : : : : : : : : : : : : : : : : : : : : : : : : : : : : : : : : : : : : : : : : : : : : : : : : : : : : : : : ",
"s s s s s s s s s s s s s s s s s s s s s s s s s s s s s s s s s s s s s s s s s s s s s s s s s s s s s s s s s s s s s s s s "
};
